<svg height="73" viewBox="0 0 73 73" width="73" xmlns="http://www.w3.org/2000/svg"><g fill="none" fill-rule="nonzero"><rect fill="#fff" height="71" rx="14" stroke="#464655" stroke-width="2" width="71" x="1" y="1"/><g transform="translate(14 17)"><path d="m43.7368359.01239844c.8316836 0 1.5218633.63708203 1.5816993 1.46660937.2186796 3.02791407.6814648 10.29789059.6814648 17.56786719v6.3445859c0 4.1403594-.4150781 8.9318164-.6447187 11.2652383-.0798711.8117383-.7624141 1.4246524-1.5781055 1.4246524h-41.55444142c-.81569141 0-1.49823438-.6129141-1.57810547-1.4246524-.22955078-2.333332-.64462891-7.124789-.64462891-11.2652383 0-2.6567695 0-5.0453554 0-6.3445859 0-7.2699766.46278516-14.53995312.681375-17.56786719.05974609-.82961718 1.54315625-1.46660937 2.37483984-1.46660937z" fill="#f0ebd2"/><path d="m0 20.6330664v4.7583945.0001797h46v-.0001797c0-1.7966054 0-3.4611406 0-4.7583945z" fill="#faf7e6"/><path d="m22.206859 16.667543h1.586191v8.724098h-1.586191z" fill="#ffd264"/><path d="m20.620668 16.667543h1.586191v8.724098h-1.586191z" fill="#ff7364"/><path d="m19.034477 16.667543h1.586191v8.724098h-1.586191z" fill="#ff8cbe"/><path d="m23.793141 16.667543h1.586191v8.724098h-1.586191z" fill="#b9f564"/><path d="m25.379332 16.667543h1.586191v8.724098h-1.586191z" fill="#50b9ff"/><path d="m0 25.3917305c0 4.1403593.41507813 8.9316367.64471875 11.2649687.07987109.8117383.76241406 1.4247422 1.57810547 1.4247422h41.55435158c.8156914 0 1.4982344-.6130039 1.5781055-1.4247422.2296406-2.333332.6447187-7.1246094.6447187-11.2649687z" fill="#5b5d6e"/><circle cx="36.482762" cy="15.081352" fill="#464655" r="2.379332"/><circle cx="9.517238" cy="15.081352" fill="#ff6464" r="2.379332"/><path d="m42.0344766 2.39173047h-5.5517149c-.4379883 0-.7931406.35515234-.7931406.79314062v5.55171485c0 .43798828.3551523.79314062.7931406.79314062h5.5517149c.4379882 0 .7931406-.35515234.7931406-.79314062v-5.55180469c0-.43798828-.3551524-.79305078-.7931406-.79305078z" fill="#464655"/><path d="m42.0344766 35.7020195h-38.06895316c-.43798828 0-.79314063-.3551523-.79314063-.7931406v-6.3448555c0-.4379882.35515235-.7931406.79314063-.7931406h38.06895316c.4379882 0 .7931406.3551524.7931406.7931406v6.3448555c0 .4380781-.3551524.7931406-.7931406.7931406z" fill="#707487"/><circle cx="39.258664" cy="5.960684" fill="#5b5d6e" r="3.568953"/><circle cx="39.258664" cy="5.960684" fill="#464655" r="1.982762"/><path d="m40.4482852 3.97792187c-.4373594 0-.7931407.35569141-.7931407.79314063s.3556914.79314062.7931407.79314062c.4373593 0 .7931406-.3556914.7931406-.79314062s-.3557813-.79314063-.7931406-.79314063z" fill="#fff"/><path d="m42.0344766 35.7020195h-38.06895316c-.43798828 0-.79314063-.3551523-.79314063-.7931406v-1.5861914h39.65523439v1.5861914c0 .4380781-.3551524.7931406-.7931406.7931406z" fill="#464655"/><path d="m22.206859 16.667543h1.586191v3.965523h-1.586191z" fill="#f5b950"/><path d="m20.620668 16.667543h1.586191v3.965523h-1.586191z" fill="#f05f46"/><path d="m19.034477 16.667543h1.586191v3.965523h-1.586191z" fill="#ff699b"/><path d="m23.793141 16.667543h1.586191v3.965523h-1.586191z" fill="#a0dc64"/><path d="m25.379332 16.667543h1.586191v3.965523h-1.586191z" fill="#46a0ff"/><circle cx="23" cy="10.322777" fill="#464655" r="7.931047"/><circle cx="23" cy="10.322777" fill="#5b5d6e" r="5.551715"/><circle cx="23" cy="10.322777" fill="#464655" r="2.379332"/><path d="m26.9655234 5.16754297c-.8748086 0-1.5861914.71138281-1.5861914 1.5861914 0 .8748086.7113828 1.58619141 1.5861914 1.58619141s1.5861914-.71138281 1.5861914-1.58619141c0-.87480859-.7113828-1.5861914-1.5861914-1.5861914z" fill="#d7deed"/><g fill="#fff" transform="translate(23 5.570313)"><path d="m1.18962109 2.76970312c-.6561289 0-1.18962109.53358204-1.18962109 1.1896211 0 .65612891.53358203 1.18962109 1.18962109 1.18962109.65612891 0 1.1896211-.53358203 1.1896211-1.18962109.00008984-.65612891-.53349219-1.1896211-1.1896211-1.1896211z"/><path d="m3.96552344 2.76970313c.3930664 0 .74857812-.1488711 1.02601562-.38641797-.46440234-.97633203-1.19752734-1.78771094-2.11393359-2.34833594-.30528906.28938672-.49827344.69575-.49827344 1.14865234 0 .87462891.71138281 1.58610157 1.58619141 1.58610157z"/></g></g></g></svg>